<svg width="165" height="165" viewBox="0 0 165 165" fill="none" xmlns="http://www.w3.org/2000/svg">
<path d="M83.3691 157.96L6 113.291V101.557L83.3691 146.227V157.96Z" fill="#4E7584"/>
<path d="M83.3691 146.227L6 101.557L83.3677 56.8894L160.737 101.559L83.3691 146.227Z" fill="#6793A0"/>
<path d="M83.3691 146.227V157.96L160.737 113.291V101.559L83.3691 146.227Z" fill="#455A64"/>
<path d="M83.3691 133.515L6 88.8467V77.1133L83.3691 121.781V133.515Z" fill="#F06292"/>
<path d="M83.3691 121.781L6 77.1133L83.3677 32.4453L160.737 77.1133L83.3691 121.781Z" fill="#FF97BF"/>
<path d="M83.3691 121.781V133.515L160.737 88.8467V77.1133L83.3691 121.781Z" fill="#D8417B"/>
<path d="M83.3691 109.071L6 64.4013V52.6693L83.3691 97.3373V109.071Z" fill="#56C4D6"/>
<path d="M83.3691 97.3373L6 52.6693L83.3677 8.00001L160.737 52.6693L83.3691 97.3373Z" fill="#80DEEA"/>
<path d="M83.3691 97.3373V109.071L160.737 64.4027V52.6693L83.3691 97.3373Z" fill="#169DC1"/>
</svg>
